<?xml version="1.0" encoding="UTF-8"?>
<!-- Generator: visioncortex VTracer 0.6.4 -->
<svg version="1.1" xmlns="http://www.w3.org/2000/svg" width="225" height="224">
<path d="M0 0 C74.25 0 148.5 0 225 0 C225 73.92 225 147.84 225 224 C150.75 224 76.5 224 0 224 C0 150.08 0 76.16 0 0 Z " fill="#FCFBFB" transform="translate(0,0)"/>
<path d="M0 0 C74.25 0 148.5 0 225 0 C225 73.92 225 147.84 225 224 C150.75 224 76.5 224 0 224 C0 150.08 0 76.16 0 0 Z M35 44 C16.906498 66.912664 9.994409 93.600375 13.28418 122.496094 C17.512351 148.658613 32.338532 171.717806 53.027344 187.941406 C70.547004 200.073944 90.328621 206.637159 111.625 206.5 C112.32766 206.498902 113.03032 206.497805 113.754272 206.496674 C125.175949 206.445536 135.309982 205.155946 146 201 C147.573945 200.458594 147.573945 200.458594 149.179688 199.90625 C172.02733 191.421714 190.994979 173.598585 202 152 C212.605998 128.62698 216.537301 100.635156 207.628906 76.042969 C200.174917 56.900976 188.783957 41.191702 173 28 C171.863047 27.019668 171.863047 27.019668 170.703125 26.019531 C167.464693 23.600067 164.122137 21.835072 160.5 20.0625 C159.440511 19.542001 159.440511 19.542001 158.359619 19.010986 C114.697674 -2.134158 67.24413 8.026315 35 44 Z " fill="#FB1011" transform="translate(0,0)"/>
<path d="M0 0 C51.15 0 102.3 0 155 0 C155 3.63 155 7.26 155 11 C103.85 11 52.7 11 0 11 C0 7.37 0 3.74 0 0 Z " fill="#EC2626" transform="translate(35,136)"/>
<path d="M0 0 C2.107416 3.161123 2.31722 4.306786 1.679688 7.960938 C-0.116873 13.350619 -3.909427 18.129877 -8 22 C-8.99 21.67 -9.98 21.34 -11 21 C-9.469203 17.555707 -7.383453 14.904833 -5 12 C-2.874918 8.812376 -2.497984 6.734878 -2 3 C-10.331138 4.983604 -14.970141 8.492828 -19.730469 15.574219 C-23.403854 21.551105 -25.132871 25.580042 -25.0625 32.6875 C-25.053477 33.866992 -25.044453 35.046484 -25.035156 36.261719 C-25.023555 37.165352 -25.011953 38.068984 -25 39 C-16.496698 36.889251 -9.625058 32.745176 -4.375 25.625 C-1.332121 22.261818 0.577687 22.321623 5 22 C6.347974 21.363457 7.685967 20.703946 9 20 C9.99 20 10.98 20 12 20 C11.216813 23.915934 9.608201 27.364066 8 31 C12.178827 28.43572 15.125055 25.980693 18 22 C19.32 22.33 20.64 22.66 22 23 C21.01 24.98 20.02 26.96 19 29 C19.779238 27.951992 19.779238 27.951992 20.574219 26.882812 C21.271602 25.972734 21.968984 25.062656 22.6875 24.125 C23.371992 23.220078 24.056484 22.315156 24.761719 21.382812 C27.099181 18.894414 28.770892 17.984001 32 17 C33.467268 20.814897 32.433364 23.290116 31 27 C31.721875 26.195625 32.44375 25.39125 33.1875 24.5625 C36.025157 21.977079 37.271661 21.319572 41 21 C40.01 25.455 40.01 25.455 39 30 C45.609973 26.474681 48.175632 23.943237 51 17 C52.98 17.495 52.98 17.495 55 18 C53.125 22.75 53.125 22.75 52 25 C52.375117 24.566875 52.750234 24.13375 53.136719 23.6875 C57.368782 19.082333 57.368782 19.082333 60.875 18.625 C61.57625 18.74875 62.2775 18.8725 63 19 C63.125 24.75 63.125 24.75 62 27 C62.580078 26.555273 63.160156 26.110547 63.757812 25.652344 C70.254771 20.945801 70.254771 20.945801 74.4375 21.25 C75.283125 21.4975 76.12875 21.745 77 22 C77.66 21.34 78.32 20.68 79 20 C79.99 20 80.98 20 82 20 C81.34 23.3 80.68 26.6 80 30 C83.191992 27.584439 85.747167 25.319965 88 22 C89.32 22.66 90.64 23.32 92 24 C92.556875 23.34 93.11375 22.68 93.6875 22 C96 20 96 20 98.75 19.75 C99.4925 19.8325 100.235 19.915 101 20 C100.487929 23.755191 99.782492 26.666885 98 30 C98.868828 29.338711 99.737656 28.677422 100.632812 27.996094 C101.796204 27.142314 102.960305 26.2895 104.125 25.4375 C104.979648 24.781045 104.979648 24.781045 105.851562 24.111328 C108.938728 21.883657 110.453203 20.942476 114.304688 21.347656 C115.194141 21.56293 116.083594 21.778203 117 22 C117.66 21.34 118.32 20.68 119 20 C119.99 20 120.98 20 122 20 C121.213027 23.410217 120.128801 26.688852 119 30 C120.11375 29.319375 120.11375 29.319375 121.25 28.625 C123.469306 27.313592 125.679678 26.117192 128 25 C126.402793 29.312459 123.683662 31.421437 120 34 C117.625 33.8125 117.625 33.8125 116 33 C115.67 31.35 115.34 29.7 115 28 C114.468906 28.516914 113.937813 29.033828 113.390625 29.566406 C112.684219 30.225117 111.977812 30.883828 111.25 31.5625 C110.553906 32.223789 109.857812 32.885078 109.140625 33.566406 C107 35 107 35 104.796875 34.902344 C103 34 103 34 102 31 C101.01 31.66 100.02 32.32 99 33 C96.3125 33.125 96.3125 33.125 94 33 C94.33 30.36 94.66 27.72 95 25 C94.552695 25.638086 94.105391 26.276172 93.644531 26.933594 C93.039961 27.759883 92.435391 28.586172 91.8125 29.4375 C91.22082 30.261211 90.629141 31.084922 90.019531 31.933594 C87.68067 34.326742 86.277996 34.688619 83 35 C83 34.01 83 33.02 83 32 C82.01 32.66 81.02 33.32 80 34 C77.8125 33.625 77.8125 33.625 76 33 C75.67 31.35 75.34 29.7 75 28 C74.468906 28.516914 73.937813 29.033828 73.390625 29.566406 C72.331016 30.554473 72.331016 30.554473 71.25 31.5625 C70.553906 32.223789 69.857812 32.885078 69.140625 33.566406 C67 35 67 35 64.734375 34.714844 C64.162031 34.478945 63.589687 34.243047 63 34 C63 32.35 63 30.7 63 29 C62.31293 29.433125 61.625859 29.86625 60.917969 30.3125 C60.016914 30.869375 59.115859 31.42625 58.1875 32 C57.29418 32.556875 56.400859 33.11375 55.480469 33.6875 C53 35 53 35 50 35 C50.125 33.25 50.125 33.25 51 31 C52.98075 29.638234 54.980797 28.304069 57 27 C57.495 25.515 57.495 25.515 58 24 C49.006777 31.054424 43.135063 39.366982 39 50 C38.01 50 37.02 50 36 50 C36.574662 45.213574 37.982456 41.462112 40.0625 37.125 C40.610352 35.972578 41.158203 34.820156 41.722656 33.632812 C42.14418 32.763984 42.565703 31.895156 43 31 C42.01 31.66 41.02 32.32 40 33 C38.68 33 37.36 33 36 33 C36 30.36 36 27.72 36 25 C32.04 29.455 32.04 29.455 28 34 C27.01 33.67 26.02 33.34 25 33 C25.165 31.865625 25.33 30.73125 25.5 29.5625 C25.856322 27.288675 25.856322 27.288675 26 25 C25.468906 25.710273 24.937813 26.420547 24.390625 27.152344 C23.331016 28.530996 23.331016 28.530996 22.25 29.9375 C21.553906 30.854023 20.857812 31.770547 20.140625 32.714844 C17.98971 35.010985 17.063827 35.675676 14 36 C14 34.35 14 32.7 14 31 C13.2575 31.515625 12.515 32.03125 11.75 32.5625 C9 34 9 34 6.6875 33.6875 C6.130625 33.460625 5.57375 33.23375 5 33 C5 31.35 5 29.7 5 28 C4.492109 28.505313 3.984219 29.010625 3.460938 29.53125 C-2.289022 34.958178 -2.289022 34.958178 -6.1875 35.1875 C-7.579687 35.094687 -7.579687 35.094687 -9 35 C-11.560929 36.798577 -11.560929 36.798577 -14 39 C-18.906698 42.053057 -22.350768 42.740883 -28 42 C-30.589319 39.329765 -30.943682 37.478699 -31.375 33.8125 C-30.051957 20.361559 -23.015811 11.164155 -12.980469 2.460938 C-8.834655 -0.597316 -4.93331 -0.313226 0 0 Z " fill="#141414" transform="translate(69,79)"/>
<path d="M0 0 C16.5 0 33 0 50 0 C50 0.33 50 0.66 50 1 C44.72 1 39.44 1 34 1 C36.475 1.99 36.475 1.99 39 3 C38.01 3.33 37.02 3.66 36 4 C36 4.33 36 4.66 36 5 C36.99 5 37.98 5 39 5 C39 5.99 39 6.98 39 8 C35.685896 9.104701 34.320507 8.699054 31 8 C30.67 8.33 30.34 8.66 30 9 C42.87 9 55.74 9 69 9 C69 8.01 69 7.02 69 6 C68.01 6 67.02 6 66 6 C65.67 6.66 65.34 7.32 65 8 C65 7.34 65 6.68 65 6 C64.01 6 63.02 6 62 6 C61.67 6.66 61.34 7.32 61 8 C57.04 8 53.08 8 49 8 C48 4 48 4 49 2 C50.36125 2.278437 50.36125 2.278437 51.75 2.5625 C54.730432 2.963712 56.219545 2.893718 59 2 C63.666667 2 68.333333 2 73 2 C72.34 2.33 71.68 2.66 71 3 C71 3.66 71 4.32 71 5 C71.99 5.495 71.99 5.495 73 6 C73.33 4.68 73.66 3.36 74 2 C75.32 2.33 76.64 2.66 78 3 C77.01 3 76.02 3 75 3 C75 3.66 75 4.32 75 5 C75.99 5.33 76.98 5.66 78 6 C78.99 6.495 78.99 6.495 80 7 C80.33 5.35 80.66 3.7 81 2 C83.31 2 85.62 2 88 2 C87.67 2.99 87.34 3.98 87 5 C87.66 5 88.32 5 89 5 C89.33 4.01 89.66 3.02 90 2 C91.32 2.33 92.64 2.66 94 3 C93.01 3 92.02 3 91 3 C91 3.66 91 4.32 91 5 C91.99 5.33 92.98 5.66 94 6 C95.158114 4.947295 95.158114 4.947295 96 3 C96.66 3 97.32 3 98 3 C98.495 3.99 98.495 3.99 99 5 C99.66 4.01 100.32 3.02 101 2 C101.99 2.495 101.99 2.495 103 3 C103 4.65 103 6.3 103 8 C100.69 7.67 98.38 7.34 96 7 C96 7.66 96 8.32 96 9 C115.14 9.33 134.28 9.66 154 10 C154 6.7 154 3.4 154 0 C154.33 0 154.66 0 155 0 C155 3.63 155 7.26 155 11 C103.85 11 52.7 11 0 11 C0 7.37 0 3.74 0 0 Z " fill="#EE807B" transform="translate(35,136)"/>
<path d="M0 0 C0.99 0 1.98 0 3 0 C2.34 3.3 1.68 6.6 1 10 C4.191992 7.584439 6.747167 5.319965 9 2 C10.32 2.66 11.64 3.32 13 4 C13.556875 3.34 14.11375 2.68 14.6875 2 C17 0 17 0 19.75 -0.25 C20.4925 -0.1675 21.235 -0.085 22 0 C21.487929 3.755191 20.782492 6.666885 19 10 C19.868828 9.338711 20.737656 8.677422 21.632812 7.996094 C22.796204 7.142314 23.960305 6.2895 25.125 5.4375 C25.694766 4.999863 26.264531 4.562227 26.851562 4.111328 C29.938728 1.883657 31.453203 0.942476 35.304688 1.347656 C36.194141 1.56293 37.083594 1.778203 38 2 C38.66 1.34 39.32 0.68 40 0 C40.99 0 41.98 0 43 0 C42.213027 3.410217 41.128801 6.688852 40 10 C40.7425 9.54625 41.485 9.0925 42.25 8.625 C44.469306 7.313592 46.679678 6.117192 49 5 C47.402793 9.312459 44.683662 11.421437 41 14 C38.625 13.8125 38.625 13.8125 37 13 C36.505 10.525 36.505 10.525 36 8 C35.468906 8.516914 34.937813 9.033828 34.390625 9.566406 C33.331016 10.554473 33.331016 10.554473 32.25 11.5625 C31.553906 12.223789 30.857812 12.885078 30.140625 13.566406 C28 15 28 15 25.796875 14.902344 C24 14 24 14 23 11 C22.01 11.66 21.02 12.32 20 13 C17.3125 13.125 17.3125 13.125 15 13 C15.33 10.36 15.66 7.72 16 5 C15.329043 5.957129 15.329043 5.957129 14.644531 6.933594 C14.039961 7.759883 13.435391 8.586172 12.8125 9.4375 C12.22082 10.261211 11.629141 11.084922 11.019531 11.933594 C8.68067 14.326742 7.277996 14.688619 4 15 C4 14.01 4 13.02 4 12 C3.01 12.66 2.02 13.32 1 14 C-1.1875 13.625 -1.1875 13.625 -3 13 C-3.33 11.35 -3.66 9.7 -4 8 C-4.796641 8.775371 -4.796641 8.775371 -5.609375 9.566406 C-6.315781 10.225117 -7.022188 10.883828 -7.75 11.5625 C-8.794141 12.554434 -8.794141 12.554434 -9.859375 13.566406 C-12 15 -12 15 -14.265625 14.714844 C-14.837969 14.478945 -15.410313 14.243047 -16 14 C-16.5 10.875 -16.5 10.875 -16 7 C-13.703307 4.314811 -11.197351 2.495164 -8 1 C-4.625 1.25 -4.625 1.25 -2 2 C-1.34 1.34 -0.68 0.68 0 0 Z " fill="#2A2A2A" transform="translate(148,99)"/>
<path d="M0 0 C0.495 0.33 0.99 0.66 1.5 1 C1.75 3.3125 1.75 3.3125 1.5 6 C-1.499645 9.239616 -5.319163 9.954791 -9.5 11 C-4.439326 10.518031 -1.662399 8.805095 2.5 6 C3.82 6 5.14 6 6.5 6 C6.6875 8.375 6.6875 8.375 6.5 11 C3.272084 13.151944 2.215992 13.200864 -1.5 13 C-1.83 14.65 -2.16 16.3 -2.5 18 C-8.44 18.33 -14.38 18.66 -20.5 19 C-20.5 17.02 -20.5 15.04 -20.5 13 C-22.81 12.67 -25.12 12.34 -27.5 12 C-27.881333 10.008594 -28.213256 8.007209 -28.5 6 C-26.489645 3.989645 -22.767542 4.138005 -20.042969 3.695312 C-17.252999 2.932464 -15.736618 1.79117 -13.5 0 C-8.972588 -1.509137 -4.435732 -1.774293 0 0 Z " fill="#0B0B0B" transform="translate(177.5,69)"/>
<path d="M0 0 C2.335937 0.005027 4.671874 0.009588 7.007812 0.013672 C12.671898 0.024574 18.335944 0.041213 24 0.0625 C24 2.3725 24 4.6825 24 7.0625 C23.01 5.0825 23.01 5.0825 22 3.0625 C21.34 3.0625 20.68 3.0625 20 3.0625 C19.67 4.3825 19.34 5.7025 19 7.0625 C17.0625 6.75 17.0625 6.75 15 6.0625 C14.505 4.5775 14.505 4.5775 14 3.0625 C13.67 3.7225 13.34 4.3825 13 5.0625 C12.34 5.0625 11.68 5.0625 11 5.0625 C10.505 4.0725 10.505 4.0725 10 3.0625 C7.472668 2.406949 7.472668 2.406949 5 2.0625 C5 4.0425 5 6.0225 5 8.0625 C3.02 7.7325 1.04 7.4025 -1 7.0625 C-1.495 4.5875 -1.495 4.5875 -2 2.0625 C-2 4.0425 -2 6.0225 -2 8.0625 C-2.99 7.4025 -3.98 6.7425 -5 6.0625 C-5 5.0725 -5 4.0825 -5 3.0625 C-8.3 2.7325 -11.6 2.4025 -15 2.0625 C-15.33 2.7225 -15.66 3.3825 -16 4.0625 C-16.598125 3.8975 -17.19625 3.7325 -17.8125 3.5625 C-20.113443 2.951088 -20.113443 2.951088 -23 3.0625 C-24.339815 2.756257 -25.675119 2.427984 -27 2.0625 C-27 3.7125 -27 5.3625 -27 7.0625 C-21.555 7.5575 -21.555 7.5575 -16 8.0625 C-15.67 7.4025 -15.34 6.7425 -15 6.0625 C-12.36 6.0625 -9.72 6.0625 -7 6.0625 C-7 7.0525 -7 8.0425 -7 9.0625 C-4.03 9.0625 -1.06 9.0625 2 9.0625 C2 9.3925 2 9.7225 2 10.0625 C-20.44 10.0625 -42.88 10.0625 -66 10.0625 C-65.67 9.4025 -65.34 8.7425 -65 8.0625 C-58.73 8.3925 -52.46 8.7225 -46 9.0625 C-45.67 8.0725 -45.34 7.0825 -45 6.0625 C-45 6.7225 -45 7.3825 -45 8.0625 C-44.01 7.7325 -43.02 7.4025 -42 7.0625 C-39.3125 7.5 -39.3125 7.5 -37 8.0625 C-37 7.0725 -37 6.0825 -37 5.0625 C-37.33 5.7225 -37.66 6.3825 -38 7.0625 C-38.99 7.0625 -39.98 7.0625 -41 7.0625 C-40.67 5.7425 -40.34 4.4225 -40 3.0625 C-40.66 3.0625 -41.32 3.0625 -42 3.0625 C-42 2.4025 -42 1.7425 -42 1.0625 C-28.000976 -0.109813 -14.038602 -0.052949 0 0 Z " fill="#EF0E10" transform="translate(111,135.9375)"/>
<path d="M0 0 C16.5 0 33 0 50 0 C50 0.33 50 0.66 50 1 C44.72 1 39.44 1 34 1 C36.475 1.99 36.475 1.99 39 3 C38.01 3.33 37.02 3.66 36 4 C36 4.33 36 4.66 36 5 C36.99 5 37.98 5 39 5 C39 5.99 39 6.98 39 8 C35.685896 9.104701 34.320507 8.699054 31 8 C30.67 8.33 30.34 8.66 30 9 C28.595568 9.074466 27.187501 9.083299 25.78125 9.0625 C24.931758 9.054766 24.082266 9.047031 23.207031 9.039062 C21.402344 9.013021 19.597656 8.986979 17.792969 8.960938 C16.943477 8.953203 16.093984 8.945469 15.21875 8.9375 C14.434355 8.925898 13.649961 8.914297 12.841797 8.902344 C10.981991 8.795117 10.981991 8.795117 10 10 C6.663818 10.142572 3.340244 10.042282 0 10 C0 6.7 0 3.4 0 0 Z " fill="#EC1015" transform="translate(35,136)"/>
<path d="M0 0 C0 3.3 0 6.6 0 10 C-9.57 10 -19.14 10 -29 10 C-29 9.67 -29 9.34 -29 9 C-26.36 9 -23.72 9 -21 9 C-20.67 8.01 -20.34 7.02 -20 6 C-20 6.66 -20 7.32 -20 8 C-19.34 8 -18.68 8 -18 8 C-18 6.35 -18 4.7 -18 3 C-17.67 3 -17.34 3 -17 3 C-17 4.65 -17 6.3 -17 8 C-16.34 8 -15.68 8 -15 8 C-15 6.35 -15 4.7 -15 3 C-16.32 2.67 -17.64 2.34 -19 2 C-19.33 2.99 -19.66 3.98 -20 5 C-20.33 4.01 -20.66 3.02 -21 2 C-23.64 2 -26.28 2 -29 2 C-29.33 2.99 -29.66 3.98 -30 5 C-30.66 4.34 -31.32 3.68 -32 3 C-34.570613 2.352322 -34.570613 2.352322 -37 2 C-37 1.67 -37 1.34 -37 1 C-24.649383 0.233221 -12.374052 -0.133054 0 0 Z " fill="#ED0E11" transform="translate(189,136)"/>
<path d="M0 0 C-0.783187 3.915934 -2.391799 7.364066 -4 11 C-2.35 10.34 -0.7 9.68 1 9 C1.33 9.66 1.66 10.32 2 11 C-2.430769 14.076923 -2.430769 14.076923 -5.3125 13.6875 C-5.869375 13.460625 -6.42625 13.23375 -7 13 C-7 11.35 -7 9.7 -7 8 C-7.507891 8.505313 -8.015781 9.010625 -8.539062 9.53125 C-14.289022 14.958178 -14.289022 14.958178 -18.1875 15.1875 C-19.115625 15.125625 -20.04375 15.06375 -21 15 C-23.849201 16.877691 -23.849201 16.877691 -26 19 C-26 16 -26 16 -23.9375 13.8125 C-23.479883 13.390977 -23.022266 12.969453 -22.550781 12.535156 C-20.728551 10.731286 -19.217056 8.758938 -17.625 6.75 C-15.027814 3.728437 -14.346918 3.08232 -10.3125 2.125 C-9.219375 2.08375 -8.12625 2.0425 -7 2 C-2.764706 0 -2.764706 0 0 0 Z " fill="#242424" transform="translate(81,99)"/>
<path d="M0 0 C-0.565086 5.792136 -2.366716 10.660609 -6.75 14.554688 C-11.42161 18 -11.42161 18 -14 18 C-14.33 19.98 -14.66 21.96 -15 24 C-12.69 24.33 -10.38 24.66 -8 25 C-8 25.99 -8 26.98 -8 28 C-8.99 27.67 -9.98 27.34 -11 27 C-14.842837 26.86026 -18.317137 26.821484 -22 28 C-21.505 26.515 -21.505 26.515 -21 25 C-20.01 25 -19.02 25 -18 25 C-17.01 21.535 -17.01 21.535 -16 18 C-17.65 17.67 -19.3 17.34 -21 17 C-20.67 16.34 -20.34 15.68 -20 15 C-18.35 15.33 -16.7 15.66 -15 16 C-14.79375 15.195625 -14.5875 14.39125 -14.375 13.5625 C-11.507433 6.132894 -8.486558 -0.22333 0 0 Z " fill="#1E1E1E" transform="translate(61,54)"/>
<path d="M0 0 C0.99 0 1.98 0 3 0 C2.34 3.3 1.68 6.6 1 10 C1.99 10 2.98 10 4 10 C4.33 11.65 4.66 13.3 5 15 C4.67 14.01 4.34 13.02 4 12 C3.01 12.66 2.02 13.32 1 14 C-1.1875 13.625 -1.1875 13.625 -3 13 C-3.33 11.35 -3.66 9.7 -4 8 C-4.796641 8.775371 -4.796641 8.775371 -5.609375 9.566406 C-6.315781 10.225117 -7.022188 10.883828 -7.75 11.5625 C-8.794141 12.554434 -8.794141 12.554434 -9.859375 13.566406 C-12 15 -12 15 -14.265625 14.714844 C-14.837969 14.478945 -15.410313 14.243047 -16 14 C-16.5 10.875 -16.5 10.875 -16 7 C-13.703307 4.314811 -11.197351 2.495164 -8 1 C-4.625 1.25 -4.625 1.25 -2 2 C-1.34 1.34 -0.68 0.68 0 0 Z " fill="#2D2D2D" transform="translate(148,99)"/>
<path d="M0 0 C2.125 0.375 2.125 0.375 4 1 C3.67 1.66 3.34 2.32 3 3 C2.01 3.33 1.02 3.66 0 4 C1.65 4 3.3 4 5 4 C5.33 2.68 5.66 1.36 6 0 C6.66 0.66 7.32 1.32 8 2 C8.33 1.34 8.66 0.68 9 0 C11.31 0 13.62 0 16 0 C15.01 0.495 15.01 0.495 14 1 C14 1.66 14 2.32 14 3 C14.66 3.33 15.32 3.66 16 4 C16.33 4.33 16.66 4.66 17 5 C17 3.35 17 1.7 17 0 C19.64 0 22.28 0 25 0 C25.33 0.66 25.66 1.32 26 2 C26.86625 1.474063 26.86625 1.474063 27.75 0.9375 C30.358018 -0.149174 31.394176 0.069349 34 1 C33.01 1.33 32.02 1.66 31 2 C31 2.33 31 2.66 31 3 C31.99 3 32.98 3 34 3 C34 3.99 34 4.98 34 6 C30.685896 7.104701 29.320507 6.699054 26 6 C25.67 6.33 25.34 6.66 25 7 C22.137324 7.073252 19.299281 7.092382 16.4375 7.0625 C15.631191 7.057988 14.824883 7.053477 13.994141 7.048828 C11.996062 7.037005 9.998022 7.019069 8 7 C8 6.34 8 5.68 8 5 C3.545 5.495 3.545 5.495 -1 6 C-1.33 4.68 -1.66 3.36 -2 2 C-1.34 1.34 -0.68 0.68 0 0 Z " fill="#ED756F" transform="translate(40,138)"/>
<path d="M0 0 C0.99 0.33 1.98 0.66 3 1 C3.1875 3.375 3.1875 3.375 3 6 C-0.227916 8.151944 -1.284008 8.200864 -5 8 C-5.33 9.65 -5.66 11.3 -6 13 C-11.94 13.33 -17.88 13.66 -24 14 C-24 11.69 -24 9.38 -24 7 C-22.623281 6.961328 -22.623281 6.961328 -21.21875 6.921875 C-12.94291 6.539378 -6.126256 6.126256 0 0 Z " fill="#2A2A2A" transform="translate(181,74)"/>
<path d="M0 0 C13.2 0 26.4 0 40 0 C40 2.31 40 4.62 40 7 C39.34 5.68 38.68 4.36 38 3 C37.34 3 36.68 3 36 3 C35.67 4.32 35.34 5.64 35 7 C33.0625 6.6875 33.0625 6.6875 31 6 C30.67 5.01 30.34 4.02 30 3 C29.67 3.66 29.34 4.32 29 5 C28.34 5 27.68 5 27 5 C26.67 4.34 26.34 3.68 26 3 C23.472668 2.344449 23.472668 2.344449 21 2 C21 3.98 21 5.96 21 8 C18.03 7.505 18.03 7.505 15 7 C14.67 5.35 14.34 3.7 14 2 C14 3.98 14 5.96 14 8 C11 6 11 6 10 2 C6.7 1.67 3.4 1.34 0 1 C0 0.67 0 0.34 0 0 Z " fill="#E81E21" transform="translate(95,136)"/>
<path d="M0 0 C0.7425 0.0825 1.485 0.165 2.25 0.25 C1.74288 3.968882 1.133918 6.984542 -0.75 10.25 C-0.09 10.25 0.57 10.25 1.25 10.25 C0.92 11.24 0.59 12.23 0.25 13.25 C-1.4 13.25 -3.05 13.25 -4.75 13.25 C-4.42 10.61 -4.09 7.97 -3.75 5.25 C-4.208906 5.888086 -4.667812 6.526172 -5.140625 7.183594 C-5.754219 8.009883 -6.367813 8.836172 -7 9.6875 C-7.904922 10.923066 -7.904922 10.923066 -8.828125 12.183594 C-10.854833 14.362717 -11.84914 14.897019 -14.75 15.25 C-14.75 13.93 -14.75 12.61 -14.75 11.25 C-15.41 10.92 -16.07 10.59 -16.75 10.25 C-14.77 7.61 -12.79 4.97 -10.75 2.25 C-9.43 2.91 -8.11 3.57 -6.75 4.25 C-6.193125 3.59 -5.63625 2.93 -5.0625 2.25 C-2.75 0.25 -2.75 0.25 0 0 Z " fill="#1D1D1D" transform="translate(167.75,98.75)"/>
<path d="M0 0 C0.33 0 0.66 0 1 0 C1 5.28 1 10.56 1 16 C-3.29 16 -7.58 16 -12 16 C-12 14.02 -12 12.04 -12 10 C-8.04 10 -4.08 10 0 10 C0 6.7 0 3.4 0 0 Z " fill="#FB2E30" transform="translate(12,102)"/>
<path d="M0 0 C-0.66 2.31 -1.32 4.62 -2 7 C-0.35 6.01 1.3 5.02 3 4 C2.375 5.9375 2.375 5.9375 1 8 C-2.125 8.75 -2.125 8.75 -5 9 C-5.33 8.34 -5.66 7.68 -6 7 C-6.598125 7.495 -7.19625 7.99 -7.8125 8.5 C-10 10 -10 10 -13 10 C-12.513986 4.532343 -12.513986 4.532343 -10.25 2.1875 C-6.816635 0.375446 -3.85218 0 0 0 Z " fill="#353535" transform="translate(66,67)"/>
<path d="M0 0 C0.99 0.33 1.98 0.66 3 1 C3.1875 3.375 3.1875 3.375 3 6 C-0.227916 8.151944 -1.284008 8.200864 -5 8 C-5.33 8.66 -5.66 9.32 -6 10 C-10.29 9.34 -14.58 8.68 -19 8 C-19 7.67 -19 7.34 -19 7 C-17.805039 6.853047 -17.805039 6.853047 -16.585938 6.703125 C-9.857485 5.753611 -4.918405 4.918405 0 0 Z " fill="#0D0D0D" transform="translate(181,74)"/>
<path d="M0 0 C0.934236 3.010317 1.044499 3.866503 0 7 C-0.66 7 -1.32 7 -2 7 C-2.33 8.98 -2.66 10.96 -3 13 C-0.69 13.33 1.62 13.66 4 14 C4 14.99 4 15.98 4 17 C3.01 16.67 2.02 16.34 1 16 C-2.842837 15.86026 -6.317137 15.821484 -10 17 C-9.505 15.515 -9.505 15.515 -9 14 C-8.01 14 -7.02 14 -6 14 C-5.34 11.69 -4.68 9.38 -4 7 C-5.65 6.67 -7.3 6.34 -9 6 C-8.67 5.34 -8.34 4.68 -8 4 C-6.35 4.33 -4.7 4.66 -3 5 C-2.814375 4.040937 -2.814375 4.040937 -2.625 3.0625 C-2.41875 2.381875 -2.2125 1.70125 -2 1 C-1.34 0.67 -0.68 0.34 0 0 Z " fill="#111111" transform="translate(49,65)"/>
<path d="M0 0 C1.98 0 3.96 0 6 0 C6.33 0.66 6.66 1.32 7 2 C7.33 1.34 7.66 0.68 8 0 C9.65 0 11.3 0 13 0 C12.67 1.98 12.34 3.96 12 6 C10.793438 5.969063 10.793438 5.969063 9.5625 5.9375 C7.066451 5.703664 7.066451 5.703664 6 7 C4.000416 7.040808 1.999547 7.042544 0 7 C0 4.69 0 2.38 0 0 Z " fill="#EB7C79" transform="translate(162,138)"/>
<path d="M0 0 C11.22 0 22.44 0 34 0 C34 0.33 34 0.66 34 1 C28.72 1 23.44 1 18 1 C17.67 1.99 17.34 2.98 17 4 C16.01 4 15.02 4 14 4 C14 3.34 14 2.68 14 2 C11.36 2 8.72 2 6 2 C6 3.65 6 5.3 6 7 C5.01 6.67 4.02 6.34 3 6 C3.33 4.68 3.66 3.36 4 2 C2.68 1.34 1.36 0.68 0 0 Z " fill="#E71E1F" transform="translate(51,136)"/>
<path d="M0 0 C0.33 0.99 0.66 1.98 1 3 C1.99 3 2.98 3 4 3 C4 3.66 4 4.32 4 5 C4.99 5.33 5.98 5.66 7 6 C6.40832 6.10957 5.816641 6.219141 5.207031 6.332031 C0.586542 7.259144 -3.087678 8.223513 -7 11 C-7 9.68 -7 8.36 -7 7 C-7.99 6.34 -8.98 5.68 -10 5 C-9.361914 4.722852 -8.723828 4.445703 -8.066406 4.160156 C-7.240117 3.79793 -6.413828 3.435703 -5.5625 3.0625 C-4.738789 2.702852 -3.915078 2.343203 -3.066406 1.972656 C-1.055899 1.168777 -1.055899 1.168777 0 0 Z " fill="#DEDEDE" transform="translate(60,73)"/>
<path d="M0 0 C0.99 0.33 1.98 0.66 3 1 C2.67 1.61875 2.34 2.2375 2 2.875 C0.858068 4.910183 0.858068 4.910183 1 7 C1.33 7.66 1.66 8.32 2 9 C0.710348 10.375629 -0.626893 11.707664 -2 13 C-2.66 13 -3.32 13 -4 13 C-4 11.68 -4 10.36 -4 9 C-4.66 8.67 -5.32 8.34 -6 8 C-4.02 5.36 -2.04 2.72 0 0 Z " fill="#0D0D0D" transform="translate(157,101)"/>
<path d="M0 0 C1.671549 0.307917 3.338055 0.643869 5 1 C7.231672 0.631431 7.231672 0.631431 9 0 C8.67 0.66 8.34 1.32 8 2 C8.33 2.33 8.66 2.66 9 3 C8.5625 5.0625 8.5625 5.0625 8 7 C7.01 6.67 6.02 6.34 5 6 C5 5.34 5 4.68 5 4 C4.67 4.66 4.34 5.32 4 6 C2.35 6 0.7 6 -1 6 C-1.625 4.125 -1.625 4.125 -2 2 C-1.34 1.34 -0.68 0.68 0 0 Z " fill="#EC7874" transform="translate(177,138)"/>
<path d="M0 0 C0.99 0 1.98 0 3 0 C3.33 0.66 3.66 1.32 4 2 C4.5775 1.649375 5.155 1.29875 5.75 0.9375 C8.358018 -0.149174 9.394176 0.069349 12 1 C11.01 1.33 10.02 1.66 9 2 C9 2.33 9 2.66 9 3 C9.99 3 10.98 3 12 3 C12 3.99 12 4.98 12 6 C8.489263 7.170246 6.588762 6.672893 3 6 C2.01 6 1.02 6 0 6 C0 4.02 0 2.04 0 0 Z " fill="#ED9189" transform="translate(62,138)"/>
<path d="M0 0 C2.97 0.33 5.94 0.66 9 1 C9.33 2.32 9.66 3.64 10 5 C6.7 5.33 3.4 5.66 0 6 C-1 2 -1 2 0 0 Z " fill="#EB504D" transform="translate(84,138)"/>
<path d="M0 0 C2.0625 0.4375 2.0625 0.4375 4 1 C3.01 1 2.02 1 1 1 C1 1.66 1 2.32 1 3 C1.99 3.33 2.98 3.66 4 4 C5.158114 2.947295 5.158114 2.947295 6 1 C6.66 1 7.32 1 8 1 C8.33 1.66 8.66 2.32 9 3 C9.66 2.01 10.32 1.02 11 0 C11.66 0.33 12.32 0.66 13 1 C13 2.65 13 4.3 13 6 C8.71 6 4.42 6 0 6 C-0.33 4.35 -0.66 2.7 -1 1 C-0.67 0.67 -0.34 0.34 0 0 Z " fill="#EEA297" transform="translate(125,138)"/>
<path d="M0 0 C0.66 0 1.32 0 2 0 C1.684442 5.206703 -1.301284 8.577308 -5 12 C-5.99 12.33 -6.98 12.66 -8 13 C-6.447598 8.032312 -3.489452 3.821329 0 0 Z " fill="#D6D6D6" transform="translate(57,56)"/>
<path d="M0 0 C2.64 0 5.28 0 8 0 C7.79375 0.5775 7.5875 1.155 7.375 1.75 C6.913387 4.519676 7.570551 5.645613 9 8 C7.68 8.33 6.36 8.66 5 9 C4.446524 6.924464 4 5.15634 4 3 C3.01 3.33 2.02 3.66 1 4 C0.67 2.68 0.34 1.36 0 0 Z " fill="#EB5550" transform="translate(135,136)"/>
<path d="M0 0 C-1.8125 1.0625 -1.8125 1.0625 -4 2 C-4.99 1.67 -5.98 1.34 -7 1 C-7 2.98 -7 4.96 -7 7 C-9.97 6.505 -9.97 6.505 -13 6 C-13 2 -13 2 -11 0 C-7.0671 -1.201719 -3.990958 -0.835317 0 0 Z " fill="#ED0E14" transform="translate(123,137)"/>
<path d="M0 0 C0.66 0.33 1.32 0.66 2 1 C-1.113368 5.002902 -3.549819 7.489641 -8 10 C-9.369842 11.295796 -10.715105 12.619927 -12 14 C-10.664456 10.021191 -9.013817 7.653015 -6 4.75 C-4.948125 3.721328 -4.948125 3.721328 -3.875 2.671875 C-2 1 -2 1 0 0 Z " fill="#E3E3E3" transform="translate(127,102)"/>
</svg>
